<mxfile host="Electron" modified="2025-07-12T10:48:07.691Z" agent="Mozilla/5.0 (Windows NT 10.0; Win64; x64) AppleWebKit/537.36 (KHTML, like Gecko) draw.io/22.1.2 Chrome/114.0.5735.289 Electron/25.9.4 Safari/537.36" etag="N_xZf6gW8QcotvoPcunp" version="22.1.2" type="device" pages="7">
  <diagram name="Least Recently Used" id="POMsT31KwhoCUOCz0t1W">
    <mxGraphModel dx="4901" dy="3443" grid="1" gridSize="10" guides="1" tooltips="1" connect="1" arrows="1" fold="1" page="1" pageScale="1" pageWidth="850" pageHeight="1100" math="0" shadow="0">
      <root>
        <mxCell id="5hRMl-ogob8N2ftGV3x6-0" />
        <mxCell id="5hRMl-ogob8N2ftGV3x6-1" parent="5hRMl-ogob8N2ftGV3x6-0" />
        <mxCell id="5hRMl-ogob8N2ftGV3x6-3" value="&lt;font style=&quot;font-size: 48px;&quot;&gt;&lt;b style=&quot;&quot;&gt;10 mins&lt;/b&gt;&lt;/font&gt;" style="text;html=1;strokeColor=none;fillColor=none;align=center;verticalAlign=middle;whiteSpace=wrap;rounded=0;" parent="5hRMl-ogob8N2ftGV3x6-1" vertex="1">
          <mxGeometry x="-270" y="-190" width="390" height="49" as="geometry" />
        </mxCell>
        <mxCell id="5hRMl-ogob8N2ftGV3x6-11" value="&lt;font style=&quot;font-size: 48px;&quot;&gt;&lt;b style=&quot;&quot;&gt;&lt;font color=&quot;#ff0000&quot;&gt;First to be deleted&lt;/font&gt;&lt;br&gt;&lt;/b&gt;&lt;/font&gt;" style="text;html=1;strokeColor=none;fillColor=none;align=center;verticalAlign=middle;whiteSpace=wrap;rounded=0;" parent="5hRMl-ogob8N2ftGV3x6-1" vertex="1">
          <mxGeometry x="1210" y="370" width="540" height="49" as="geometry" />
        </mxCell>
        <mxCell id="5hRMl-ogob8N2ftGV3x6-14" value="&lt;font face=&quot;Verdana&quot; style=&quot;font-size: 60px;&quot;&gt;&lt;b&gt;Least Recently Used (LRU)&lt;/b&gt;&lt;/font&gt;" style="rounded=0;whiteSpace=wrap;html=1;fillColor=#d5e8d4;strokeColor=#82b366;" parent="5hRMl-ogob8N2ftGV3x6-1" vertex="1">
          <mxGeometry x="80" y="610" width="1030" height="130" as="geometry" />
        </mxCell>
        <mxCell id="8ovCLWjsoIjjFEWbOQYG-0" value="" style="rounded=1;whiteSpace=wrap;html=1;strokeWidth=4;" vertex="1" parent="5hRMl-ogob8N2ftGV3x6-1">
          <mxGeometry x="-290" width="1670" height="320" as="geometry" />
        </mxCell>
        <mxCell id="8ovCLWjsoIjjFEWbOQYG-6" style="edgeStyle=orthogonalEdgeStyle;rounded=0;orthogonalLoop=1;jettySize=auto;html=1;strokeWidth=4;" edge="1" parent="5hRMl-ogob8N2ftGV3x6-1" source="8ovCLWjsoIjjFEWbOQYG-1">
          <mxGeometry relative="1" as="geometry">
            <mxPoint x="-80" y="-130" as="targetPoint" />
          </mxGeometry>
        </mxCell>
        <mxCell id="8ovCLWjsoIjjFEWbOQYG-1" value="" style="ellipse;whiteSpace=wrap;html=1;aspect=fixed;fillColor=#d5e8d4;strokeColor=#82b366;" vertex="1" parent="5hRMl-ogob8N2ftGV3x6-1">
          <mxGeometry x="-200" y="40" width="240" height="240" as="geometry" />
        </mxCell>
        <mxCell id="8ovCLWjsoIjjFEWbOQYG-2" value="" style="ellipse;whiteSpace=wrap;html=1;aspect=fixed;fillColor=#d5e8d4;strokeColor=#82b366;" vertex="1" parent="5hRMl-ogob8N2ftGV3x6-1">
          <mxGeometry x="110" y="40" width="240" height="240" as="geometry" />
        </mxCell>
        <mxCell id="8ovCLWjsoIjjFEWbOQYG-3" value="" style="ellipse;whiteSpace=wrap;html=1;aspect=fixed;fillColor=#d5e8d4;strokeColor=#82b366;" vertex="1" parent="5hRMl-ogob8N2ftGV3x6-1">
          <mxGeometry x="420" y="40" width="240" height="240" as="geometry" />
        </mxCell>
        <mxCell id="8ovCLWjsoIjjFEWbOQYG-4" value="" style="ellipse;whiteSpace=wrap;html=1;aspect=fixed;fillColor=#f8cecc;strokeColor=#b85450;" vertex="1" parent="5hRMl-ogob8N2ftGV3x6-1">
          <mxGeometry x="730" y="40" width="240" height="240" as="geometry" />
        </mxCell>
        <mxCell id="8ovCLWjsoIjjFEWbOQYG-5" value="" style="ellipse;whiteSpace=wrap;html=1;aspect=fixed;fillColor=#d5e8d4;strokeColor=#82b366;" vertex="1" parent="5hRMl-ogob8N2ftGV3x6-1">
          <mxGeometry x="1040" y="50" width="240" height="240" as="geometry" />
        </mxCell>
        <mxCell id="8ovCLWjsoIjjFEWbOQYG-9" style="edgeStyle=orthogonalEdgeStyle;rounded=0;orthogonalLoop=1;jettySize=auto;html=1;strokeWidth=4;" edge="1" parent="5hRMl-ogob8N2ftGV3x6-1">
          <mxGeometry relative="1" as="geometry">
            <mxPoint x="1320" as="targetPoint" />
            <mxPoint x="1410" y="-160" as="sourcePoint" />
            <Array as="points">
              <mxPoint x="1320" y="-100" />
              <mxPoint x="1320" y="-100" />
            </Array>
          </mxGeometry>
        </mxCell>
        <mxCell id="8ovCLWjsoIjjFEWbOQYG-10" style="edgeStyle=orthogonalEdgeStyle;rounded=0;orthogonalLoop=1;jettySize=auto;html=1;strokeWidth=4;" edge="1" parent="5hRMl-ogob8N2ftGV3x6-1">
          <mxGeometry relative="1" as="geometry">
            <mxPoint x="229.29" y="450" as="targetPoint" />
            <mxPoint x="229.29" y="280" as="sourcePoint" />
            <Array as="points">
              <mxPoint x="229.29" y="350" />
              <mxPoint x="229.29" y="350" />
            </Array>
          </mxGeometry>
        </mxCell>
        <mxCell id="8ovCLWjsoIjjFEWbOQYG-11" style="edgeStyle=orthogonalEdgeStyle;rounded=0;orthogonalLoop=1;jettySize=auto;html=1;strokeWidth=4;" edge="1" parent="5hRMl-ogob8N2ftGV3x6-1">
          <mxGeometry relative="1" as="geometry">
            <mxPoint x="849.3299999999999" y="450" as="targetPoint" />
            <mxPoint x="849.3299999999999" y="280" as="sourcePoint" />
            <Array as="points">
              <mxPoint x="849.3299999999999" y="350" />
              <mxPoint x="849.3299999999999" y="350" />
            </Array>
          </mxGeometry>
        </mxCell>
        <mxCell id="8ovCLWjsoIjjFEWbOQYG-12" style="edgeStyle=orthogonalEdgeStyle;rounded=0;orthogonalLoop=1;jettySize=auto;html=1;strokeWidth=4;" edge="1" parent="5hRMl-ogob8N2ftGV3x6-1">
          <mxGeometry relative="1" as="geometry">
            <mxPoint x="539.29" y="-130" as="targetPoint" />
            <mxPoint x="539.29" y="40" as="sourcePoint" />
          </mxGeometry>
        </mxCell>
        <mxCell id="8ovCLWjsoIjjFEWbOQYG-13" style="edgeStyle=orthogonalEdgeStyle;rounded=0;orthogonalLoop=1;jettySize=auto;html=1;strokeWidth=4;" edge="1" parent="5hRMl-ogob8N2ftGV3x6-1">
          <mxGeometry relative="1" as="geometry">
            <mxPoint x="1159.41" y="-120" as="targetPoint" />
            <mxPoint x="1159.41" y="50" as="sourcePoint" />
          </mxGeometry>
        </mxCell>
        <mxCell id="8ovCLWjsoIjjFEWbOQYG-14" value="&lt;font style=&quot;font-size: 48px;&quot;&gt;&lt;b style=&quot;&quot;&gt;16 mins&lt;/b&gt;&lt;/font&gt;" style="text;html=1;strokeColor=none;fillColor=none;align=center;verticalAlign=middle;whiteSpace=wrap;rounded=0;" vertex="1" parent="5hRMl-ogob8N2ftGV3x6-1">
          <mxGeometry x="345" y="-190" width="390" height="49" as="geometry" />
        </mxCell>
        <mxCell id="8ovCLWjsoIjjFEWbOQYG-15" value="&lt;font style=&quot;font-size: 48px;&quot;&gt;&lt;b style=&quot;&quot;&gt;4 mins&lt;/b&gt;&lt;/font&gt;" style="text;html=1;strokeColor=none;fillColor=none;align=center;verticalAlign=middle;whiteSpace=wrap;rounded=0;" vertex="1" parent="5hRMl-ogob8N2ftGV3x6-1">
          <mxGeometry x="960" y="-180" width="390" height="49" as="geometry" />
        </mxCell>
        <mxCell id="8ovCLWjsoIjjFEWbOQYG-16" value="&lt;font style=&quot;font-size: 48px;&quot;&gt;&lt;b style=&quot;&quot;&gt;45 mins&lt;/b&gt;&lt;/font&gt;" style="text;html=1;strokeColor=none;fillColor=none;align=center;verticalAlign=middle;whiteSpace=wrap;rounded=0;" vertex="1" parent="5hRMl-ogob8N2ftGV3x6-1">
          <mxGeometry x="30" y="460" width="390" height="49" as="geometry" />
        </mxCell>
        <mxCell id="8ovCLWjsoIjjFEWbOQYG-17" value="&lt;font style=&quot;font-size: 48px;&quot;&gt;&lt;b style=&quot;&quot;&gt;60 mins&lt;/b&gt;&lt;/font&gt;" style="text;html=1;strokeColor=none;fillColor=none;align=center;verticalAlign=middle;whiteSpace=wrap;rounded=0;" vertex="1" parent="5hRMl-ogob8N2ftGV3x6-1">
          <mxGeometry x="670" y="470" width="390" height="49" as="geometry" />
        </mxCell>
        <mxCell id="8ovCLWjsoIjjFEWbOQYG-18" value="&lt;font style=&quot;font-size: 48px;&quot;&gt;&lt;b style=&quot;&quot;&gt;Time since last used&lt;/b&gt;&lt;/font&gt;" style="text;html=1;strokeColor=none;fillColor=none;align=center;verticalAlign=middle;whiteSpace=wrap;rounded=0;" vertex="1" parent="5hRMl-ogob8N2ftGV3x6-1">
          <mxGeometry x="1320" y="-200" width="390" height="49" as="geometry" />
        </mxCell>
        <mxCell id="8ovCLWjsoIjjFEWbOQYG-19" style="edgeStyle=orthogonalEdgeStyle;rounded=0;orthogonalLoop=1;jettySize=auto;html=1;strokeWidth=4;" edge="1" parent="5hRMl-ogob8N2ftGV3x6-1">
          <mxGeometry relative="1" as="geometry">
            <mxPoint x="950.0499999999998" y="230" as="targetPoint" />
            <mxPoint x="1260" y="400" as="sourcePoint" />
            <Array as="points">
              <mxPoint x="950.0499999999998" y="300" />
              <mxPoint x="950.0499999999998" y="300" />
            </Array>
          </mxGeometry>
        </mxCell>
      </root>
    </mxGraphModel>
  </diagram>
  <diagram name="Least Frequently Used" id="D8tKrzcBVg3WUpohUiAj">
    <mxGraphModel dx="3428" dy="2591" grid="1" gridSize="10" guides="1" tooltips="1" connect="1" arrows="1" fold="1" page="1" pageScale="1" pageWidth="850" pageHeight="1100" math="0" shadow="0">
      <root>
        <mxCell id="ZgraPuSZtNZMdnTy8_oL-0" />
        <mxCell id="ZgraPuSZtNZMdnTy8_oL-1" parent="ZgraPuSZtNZMdnTy8_oL-0" />
        <mxCell id="ZgraPuSZtNZMdnTy8_oL-2" value="&lt;font style=&quot;font-size: 48px;&quot;&gt;&lt;b style=&quot;&quot;&gt;7&lt;/b&gt;&lt;/font&gt;" style="text;html=1;strokeColor=none;fillColor=none;align=center;verticalAlign=middle;whiteSpace=wrap;rounded=0;" vertex="1" parent="ZgraPuSZtNZMdnTy8_oL-1">
          <mxGeometry x="-275" y="-200" width="390" height="49" as="geometry" />
        </mxCell>
        <mxCell id="ZgraPuSZtNZMdnTy8_oL-3" value="&lt;font style=&quot;font-size: 48px;&quot;&gt;&lt;b style=&quot;&quot;&gt;&lt;font color=&quot;#ff0000&quot;&gt;First to be deleted&lt;/font&gt;&lt;br&gt;&lt;/b&gt;&lt;/font&gt;" style="text;html=1;strokeColor=none;fillColor=none;align=center;verticalAlign=middle;whiteSpace=wrap;rounded=0;" vertex="1" parent="ZgraPuSZtNZMdnTy8_oL-1">
          <mxGeometry x="1210" y="370" width="540" height="49" as="geometry" />
        </mxCell>
        <mxCell id="ZgraPuSZtNZMdnTy8_oL-4" value="&lt;font face=&quot;Verdana&quot; style=&quot;font-size: 60px;&quot;&gt;&lt;b&gt;Least Frequently Used (LFU)&lt;/b&gt;&lt;/font&gt;" style="rounded=0;whiteSpace=wrap;html=1;fillColor=#d5e8d4;strokeColor=#82b366;" vertex="1" parent="ZgraPuSZtNZMdnTy8_oL-1">
          <mxGeometry x="80" y="610" width="1030" height="130" as="geometry" />
        </mxCell>
        <mxCell id="ZgraPuSZtNZMdnTy8_oL-5" value="" style="rounded=1;whiteSpace=wrap;html=1;strokeWidth=4;" vertex="1" parent="ZgraPuSZtNZMdnTy8_oL-1">
          <mxGeometry x="-290" width="1670" height="320" as="geometry" />
        </mxCell>
        <mxCell id="ZgraPuSZtNZMdnTy8_oL-6" style="edgeStyle=orthogonalEdgeStyle;rounded=0;orthogonalLoop=1;jettySize=auto;html=1;strokeWidth=4;" edge="1" parent="ZgraPuSZtNZMdnTy8_oL-1" source="ZgraPuSZtNZMdnTy8_oL-7">
          <mxGeometry relative="1" as="geometry">
            <mxPoint x="-80" y="-130" as="targetPoint" />
          </mxGeometry>
        </mxCell>
        <mxCell id="ZgraPuSZtNZMdnTy8_oL-7" value="" style="ellipse;whiteSpace=wrap;html=1;aspect=fixed;fillColor=#d5e8d4;strokeColor=#82b366;" vertex="1" parent="ZgraPuSZtNZMdnTy8_oL-1">
          <mxGeometry x="-200" y="40" width="240" height="240" as="geometry" />
        </mxCell>
        <mxCell id="ZgraPuSZtNZMdnTy8_oL-8" value="" style="ellipse;whiteSpace=wrap;html=1;aspect=fixed;fillColor=#d5e8d4;strokeColor=#82b366;" vertex="1" parent="ZgraPuSZtNZMdnTy8_oL-1">
          <mxGeometry x="110" y="40" width="240" height="240" as="geometry" />
        </mxCell>
        <mxCell id="ZgraPuSZtNZMdnTy8_oL-9" value="" style="ellipse;whiteSpace=wrap;html=1;aspect=fixed;fillColor=#d5e8d4;strokeColor=#82b366;" vertex="1" parent="ZgraPuSZtNZMdnTy8_oL-1">
          <mxGeometry x="420" y="40" width="240" height="240" as="geometry" />
        </mxCell>
        <mxCell id="ZgraPuSZtNZMdnTy8_oL-10" value="" style="ellipse;whiteSpace=wrap;html=1;aspect=fixed;fillColor=#f8cecc;strokeColor=#b85450;" vertex="1" parent="ZgraPuSZtNZMdnTy8_oL-1">
          <mxGeometry x="730" y="40" width="240" height="240" as="geometry" />
        </mxCell>
        <mxCell id="ZgraPuSZtNZMdnTy8_oL-11" value="" style="ellipse;whiteSpace=wrap;html=1;aspect=fixed;fillColor=#d5e8d4;strokeColor=#82b366;" vertex="1" parent="ZgraPuSZtNZMdnTy8_oL-1">
          <mxGeometry x="1040" y="50" width="240" height="240" as="geometry" />
        </mxCell>
        <mxCell id="ZgraPuSZtNZMdnTy8_oL-12" style="edgeStyle=orthogonalEdgeStyle;rounded=0;orthogonalLoop=1;jettySize=auto;html=1;strokeWidth=4;" edge="1" parent="ZgraPuSZtNZMdnTy8_oL-1">
          <mxGeometry relative="1" as="geometry">
            <mxPoint x="1320" as="targetPoint" />
            <mxPoint x="1410" y="-160" as="sourcePoint" />
            <Array as="points">
              <mxPoint x="1320" y="-100" />
              <mxPoint x="1320" y="-100" />
            </Array>
          </mxGeometry>
        </mxCell>
        <mxCell id="ZgraPuSZtNZMdnTy8_oL-13" style="edgeStyle=orthogonalEdgeStyle;rounded=0;orthogonalLoop=1;jettySize=auto;html=1;strokeWidth=4;" edge="1" parent="ZgraPuSZtNZMdnTy8_oL-1">
          <mxGeometry relative="1" as="geometry">
            <mxPoint x="229.29" y="450" as="targetPoint" />
            <mxPoint x="229.29" y="280" as="sourcePoint" />
            <Array as="points">
              <mxPoint x="229.29" y="350" />
              <mxPoint x="229.29" y="350" />
            </Array>
          </mxGeometry>
        </mxCell>
        <mxCell id="ZgraPuSZtNZMdnTy8_oL-14" style="edgeStyle=orthogonalEdgeStyle;rounded=0;orthogonalLoop=1;jettySize=auto;html=1;strokeWidth=4;" edge="1" parent="ZgraPuSZtNZMdnTy8_oL-1">
          <mxGeometry relative="1" as="geometry">
            <mxPoint x="849.3299999999999" y="450" as="targetPoint" />
            <mxPoint x="849.3299999999999" y="280" as="sourcePoint" />
            <Array as="points">
              <mxPoint x="849.3299999999999" y="350" />
              <mxPoint x="849.3299999999999" y="350" />
            </Array>
          </mxGeometry>
        </mxCell>
        <mxCell id="ZgraPuSZtNZMdnTy8_oL-15" style="edgeStyle=orthogonalEdgeStyle;rounded=0;orthogonalLoop=1;jettySize=auto;html=1;strokeWidth=4;" edge="1" parent="ZgraPuSZtNZMdnTy8_oL-1">
          <mxGeometry relative="1" as="geometry">
            <mxPoint x="539.29" y="-130" as="targetPoint" />
            <mxPoint x="539.29" y="40" as="sourcePoint" />
          </mxGeometry>
        </mxCell>
        <mxCell id="ZgraPuSZtNZMdnTy8_oL-16" style="edgeStyle=orthogonalEdgeStyle;rounded=0;orthogonalLoop=1;jettySize=auto;html=1;strokeWidth=4;" edge="1" parent="ZgraPuSZtNZMdnTy8_oL-1">
          <mxGeometry relative="1" as="geometry">
            <mxPoint x="1159.41" y="-120" as="targetPoint" />
            <mxPoint x="1159.41" y="50" as="sourcePoint" />
          </mxGeometry>
        </mxCell>
        <mxCell id="ZgraPuSZtNZMdnTy8_oL-17" value="&lt;font style=&quot;font-size: 48px;&quot;&gt;&lt;b style=&quot;&quot;&gt;60&lt;/b&gt;&lt;/font&gt;" style="text;html=1;strokeColor=none;fillColor=none;align=center;verticalAlign=middle;whiteSpace=wrap;rounded=0;" vertex="1" parent="ZgraPuSZtNZMdnTy8_oL-1">
          <mxGeometry x="345" y="-210" width="390" height="49" as="geometry" />
        </mxCell>
        <mxCell id="ZgraPuSZtNZMdnTy8_oL-18" value="&lt;font style=&quot;font-size: 48px;&quot;&gt;&lt;b style=&quot;&quot;&gt;7&lt;/b&gt;&lt;/font&gt;" style="text;html=1;strokeColor=none;fillColor=none;align=center;verticalAlign=middle;whiteSpace=wrap;rounded=0;" vertex="1" parent="ZgraPuSZtNZMdnTy8_oL-1">
          <mxGeometry x="960" y="-200" width="390" height="49" as="geometry" />
        </mxCell>
        <mxCell id="ZgraPuSZtNZMdnTy8_oL-19" value="&lt;font style=&quot;font-size: 48px;&quot;&gt;&lt;b style=&quot;&quot;&gt;15&lt;/b&gt;&lt;/font&gt;" style="text;html=1;strokeColor=none;fillColor=none;align=center;verticalAlign=middle;whiteSpace=wrap;rounded=0;" vertex="1" parent="ZgraPuSZtNZMdnTy8_oL-1">
          <mxGeometry x="35" y="460" width="390" height="49" as="geometry" />
        </mxCell>
        <mxCell id="ZgraPuSZtNZMdnTy8_oL-20" value="&lt;font style=&quot;font-size: 48px;&quot;&gt;&lt;b style=&quot;&quot;&gt;5&lt;/b&gt;&lt;/font&gt;" style="text;html=1;strokeColor=none;fillColor=none;align=center;verticalAlign=middle;whiteSpace=wrap;rounded=0;" vertex="1" parent="ZgraPuSZtNZMdnTy8_oL-1">
          <mxGeometry x="655" y="460" width="390" height="49" as="geometry" />
        </mxCell>
        <mxCell id="ZgraPuSZtNZMdnTy8_oL-21" value="&lt;font style=&quot;font-size: 48px;&quot;&gt;&lt;b style=&quot;&quot;&gt;Number of times used&lt;/b&gt;&lt;/font&gt;" style="text;html=1;strokeColor=none;fillColor=none;align=center;verticalAlign=middle;whiteSpace=wrap;rounded=0;" vertex="1" parent="ZgraPuSZtNZMdnTy8_oL-1">
          <mxGeometry x="1320" y="-200" width="390" height="49" as="geometry" />
        </mxCell>
        <mxCell id="ZgraPuSZtNZMdnTy8_oL-22" style="edgeStyle=orthogonalEdgeStyle;rounded=0;orthogonalLoop=1;jettySize=auto;html=1;strokeWidth=4;" edge="1" parent="ZgraPuSZtNZMdnTy8_oL-1">
          <mxGeometry relative="1" as="geometry">
            <mxPoint x="950.0499999999998" y="230" as="targetPoint" />
            <mxPoint x="1260" y="400" as="sourcePoint" />
            <Array as="points">
              <mxPoint x="950.0499999999998" y="300" />
              <mxPoint x="950.0499999999998" y="300" />
            </Array>
          </mxGeometry>
        </mxCell>
      </root>
    </mxGraphModel>
  </diagram>
  <diagram name="First In, First Out" id="Zo2rVaREKHGINr4illzg">
    <mxGraphModel dx="4901" dy="3443" grid="1" gridSize="10" guides="1" tooltips="1" connect="1" arrows="1" fold="1" page="1" pageScale="1" pageWidth="850" pageHeight="1100" math="0" shadow="0">
      <root>
        <mxCell id="zYVfNO5OCGXKisRvZgQ6-0" />
        <mxCell id="zYVfNO5OCGXKisRvZgQ6-1" parent="zYVfNO5OCGXKisRvZgQ6-0" />
        <mxCell id="zYVfNO5OCGXKisRvZgQ6-3" value="&lt;font style=&quot;font-size: 48px;&quot;&gt;&lt;b style=&quot;&quot;&gt;&lt;font color=&quot;#ff0000&quot;&gt;First to be deleted&lt;/font&gt;&lt;br&gt;&lt;/b&gt;&lt;/font&gt;" style="text;html=1;strokeColor=none;fillColor=none;align=center;verticalAlign=middle;whiteSpace=wrap;rounded=0;" vertex="1" parent="zYVfNO5OCGXKisRvZgQ6-1">
          <mxGeometry x="1210" y="370" width="540" height="49" as="geometry" />
        </mxCell>
        <mxCell id="zYVfNO5OCGXKisRvZgQ6-4" value="&lt;font face=&quot;Verdana&quot; style=&quot;font-size: 60px;&quot;&gt;&lt;b&gt;First In, First Out (FIFO)&lt;/b&gt;&lt;/font&gt;" style="rounded=0;whiteSpace=wrap;html=1;fillColor=#d5e8d4;strokeColor=#82b366;" vertex="1" parent="zYVfNO5OCGXKisRvZgQ6-1">
          <mxGeometry x="80" y="610" width="1030" height="130" as="geometry" />
        </mxCell>
        <mxCell id="zYVfNO5OCGXKisRvZgQ6-5" value="" style="rounded=1;whiteSpace=wrap;html=1;strokeWidth=4;" vertex="1" parent="zYVfNO5OCGXKisRvZgQ6-1">
          <mxGeometry x="-290" width="1670" height="360" as="geometry" />
        </mxCell>
        <mxCell id="zYVfNO5OCGXKisRvZgQ6-6" style="edgeStyle=orthogonalEdgeStyle;rounded=0;orthogonalLoop=1;jettySize=auto;html=1;strokeWidth=4;dashed=1;dashPattern=8 8;" edge="1" parent="zYVfNO5OCGXKisRvZgQ6-1">
          <mxGeometry relative="1" as="geometry">
            <mxPoint x="1200" y="320" as="targetPoint" />
            <mxPoint x="-180" y="320" as="sourcePoint" />
          </mxGeometry>
        </mxCell>
        <mxCell id="zYVfNO5OCGXKisRvZgQ6-7" value="" style="ellipse;whiteSpace=wrap;html=1;aspect=fixed;fillColor=#d5e8d4;strokeColor=#82b366;" vertex="1" parent="zYVfNO5OCGXKisRvZgQ6-1">
          <mxGeometry x="-200" y="40" width="240" height="240" as="geometry" />
        </mxCell>
        <mxCell id="zYVfNO5OCGXKisRvZgQ6-8" value="" style="ellipse;whiteSpace=wrap;html=1;aspect=fixed;fillColor=#d5e8d4;strokeColor=#82b366;" vertex="1" parent="zYVfNO5OCGXKisRvZgQ6-1">
          <mxGeometry x="110" y="40" width="240" height="240" as="geometry" />
        </mxCell>
        <mxCell id="zYVfNO5OCGXKisRvZgQ6-9" value="" style="ellipse;whiteSpace=wrap;html=1;aspect=fixed;fillColor=#d5e8d4;strokeColor=#82b366;" vertex="1" parent="zYVfNO5OCGXKisRvZgQ6-1">
          <mxGeometry x="420" y="40" width="240" height="240" as="geometry" />
        </mxCell>
        <mxCell id="zYVfNO5OCGXKisRvZgQ6-10" value="" style="ellipse;whiteSpace=wrap;html=1;aspect=fixed;fillColor=#d5e8d4;strokeColor=#82b366;" vertex="1" parent="zYVfNO5OCGXKisRvZgQ6-1">
          <mxGeometry x="730" y="40" width="240" height="240" as="geometry" />
        </mxCell>
        <mxCell id="zYVfNO5OCGXKisRvZgQ6-11" value="" style="ellipse;whiteSpace=wrap;html=1;aspect=fixed;fillColor=#f8cecc;strokeColor=#b85450;" vertex="1" parent="zYVfNO5OCGXKisRvZgQ6-1">
          <mxGeometry x="1040" y="50" width="240" height="240" as="geometry" />
        </mxCell>
        <mxCell id="zYVfNO5OCGXKisRvZgQ6-22" style="edgeStyle=orthogonalEdgeStyle;rounded=0;orthogonalLoop=1;jettySize=auto;html=1;strokeWidth=4;" edge="1" parent="zYVfNO5OCGXKisRvZgQ6-1">
          <mxGeometry relative="1" as="geometry">
            <mxPoint x="1240" y="270" as="targetPoint" />
            <mxPoint x="1260" y="400" as="sourcePoint" />
            <Array as="points">
              <mxPoint x="1240" y="400" />
            </Array>
          </mxGeometry>
        </mxCell>
        <mxCell id="gBd1DE-X7x8jyiA0h6hY-1" value="&lt;font style=&quot;&quot;&gt;&lt;b style=&quot;&quot;&gt;&lt;font style=&quot;font-size: 60px;&quot;&gt;Enqueue&lt;/font&gt;&lt;br&gt;&lt;/b&gt;&lt;/font&gt;" style="text;html=1;strokeColor=none;fillColor=none;align=center;verticalAlign=middle;whiteSpace=wrap;rounded=0;" vertex="1" parent="zYVfNO5OCGXKisRvZgQ6-1">
          <mxGeometry x="-650" y="155.5" width="330" height="49" as="geometry" />
        </mxCell>
        <mxCell id="gBd1DE-X7x8jyiA0h6hY-2" style="edgeStyle=orthogonalEdgeStyle;rounded=0;orthogonalLoop=1;jettySize=auto;html=1;exitX=0.5;exitY=1;exitDx=0;exitDy=0;" edge="1" parent="zYVfNO5OCGXKisRvZgQ6-1" source="gBd1DE-X7x8jyiA0h6hY-1" target="gBd1DE-X7x8jyiA0h6hY-1">
          <mxGeometry relative="1" as="geometry" />
        </mxCell>
        <mxCell id="gBd1DE-X7x8jyiA0h6hY-3" value="&lt;font style=&quot;&quot;&gt;&lt;b style=&quot;&quot;&gt;&lt;font style=&quot;font-size: 60px;&quot;&gt;Dequeue&lt;/font&gt;&lt;br&gt;&lt;/b&gt;&lt;/font&gt;" style="text;html=1;strokeColor=none;fillColor=none;align=center;verticalAlign=middle;whiteSpace=wrap;rounded=0;" vertex="1" parent="zYVfNO5OCGXKisRvZgQ6-1">
          <mxGeometry x="1400" y="155.5" width="330" height="49" as="geometry" />
        </mxCell>
      </root>
    </mxGraphModel>
  </diagram>
  <diagram name="Random Replacement" id="Z5KDU7fKFQoLTNOjByQJ">
    <mxGraphModel dx="3213" dy="2467" grid="1" gridSize="10" guides="1" tooltips="1" connect="1" arrows="1" fold="1" page="1" pageScale="1" pageWidth="850" pageHeight="1100" math="0" shadow="0">
      <root>
        <mxCell id="aamFRvl7CQ2vPfNjSyrz-0" />
        <mxCell id="aamFRvl7CQ2vPfNjSyrz-1" parent="aamFRvl7CQ2vPfNjSyrz-0" />
        <mxCell id="aamFRvl7CQ2vPfNjSyrz-3" value="&lt;font style=&quot;font-size: 48px;&quot;&gt;&lt;b style=&quot;&quot;&gt;&lt;font color=&quot;#ff0000&quot;&gt;Delete a random item&lt;/font&gt;&lt;br&gt;&lt;/b&gt;&lt;/font&gt;" style="text;html=1;strokeColor=none;fillColor=none;align=center;verticalAlign=middle;whiteSpace=wrap;rounded=0;" vertex="1" parent="aamFRvl7CQ2vPfNjSyrz-1">
          <mxGeometry x="1200" y="380" width="370" height="49" as="geometry" />
        </mxCell>
        <mxCell id="aamFRvl7CQ2vPfNjSyrz-4" value="&lt;font face=&quot;Verdana&quot; style=&quot;font-size: 60px;&quot;&gt;&lt;b&gt;Random Replacement (RR)&lt;/b&gt;&lt;/font&gt;" style="rounded=0;whiteSpace=wrap;html=1;fillColor=#d5e8d4;strokeColor=#82b366;" vertex="1" parent="aamFRvl7CQ2vPfNjSyrz-1">
          <mxGeometry x="80" y="600" width="1030" height="130" as="geometry" />
        </mxCell>
        <mxCell id="aamFRvl7CQ2vPfNjSyrz-5" value="" style="rounded=1;whiteSpace=wrap;html=1;strokeWidth=4;" vertex="1" parent="aamFRvl7CQ2vPfNjSyrz-1">
          <mxGeometry x="-290" width="1670" height="320" as="geometry" />
        </mxCell>
        <mxCell id="aamFRvl7CQ2vPfNjSyrz-7" value="" style="ellipse;whiteSpace=wrap;html=1;aspect=fixed;fillColor=#d5e8d4;strokeColor=#82b366;" vertex="1" parent="aamFRvl7CQ2vPfNjSyrz-1">
          <mxGeometry x="-200" y="40" width="240" height="240" as="geometry" />
        </mxCell>
        <mxCell id="aamFRvl7CQ2vPfNjSyrz-8" value="" style="ellipse;whiteSpace=wrap;html=1;aspect=fixed;fillColor=#d5e8d4;strokeColor=#82b366;" vertex="1" parent="aamFRvl7CQ2vPfNjSyrz-1">
          <mxGeometry x="110" y="40" width="240" height="240" as="geometry" />
        </mxCell>
        <mxCell id="aamFRvl7CQ2vPfNjSyrz-9" value="" style="ellipse;whiteSpace=wrap;html=1;aspect=fixed;fillColor=#d5e8d4;strokeColor=#82b366;" vertex="1" parent="aamFRvl7CQ2vPfNjSyrz-1">
          <mxGeometry x="420" y="40" width="240" height="240" as="geometry" />
        </mxCell>
        <mxCell id="aamFRvl7CQ2vPfNjSyrz-10" value="" style="ellipse;whiteSpace=wrap;html=1;aspect=fixed;fillColor=#f8cecc;strokeColor=#b85450;" vertex="1" parent="aamFRvl7CQ2vPfNjSyrz-1">
          <mxGeometry x="730" y="40" width="240" height="240" as="geometry" />
        </mxCell>
        <mxCell id="aamFRvl7CQ2vPfNjSyrz-11" value="" style="ellipse;whiteSpace=wrap;html=1;aspect=fixed;fillColor=#d5e8d4;strokeColor=#82b366;" vertex="1" parent="aamFRvl7CQ2vPfNjSyrz-1">
          <mxGeometry x="1040" y="50" width="240" height="240" as="geometry" />
        </mxCell>
        <mxCell id="aamFRvl7CQ2vPfNjSyrz-22" style="edgeStyle=orthogonalEdgeStyle;rounded=0;orthogonalLoop=1;jettySize=auto;html=1;strokeWidth=4;" edge="1" parent="aamFRvl7CQ2vPfNjSyrz-1">
          <mxGeometry relative="1" as="geometry">
            <mxPoint x="950.0499999999998" y="230" as="targetPoint" />
            <mxPoint x="1260" y="400" as="sourcePoint" />
            <Array as="points">
              <mxPoint x="950.0499999999998" y="300" />
              <mxPoint x="950.0499999999998" y="300" />
            </Array>
          </mxGeometry>
        </mxCell>
      </root>
    </mxGraphModel>
  </diagram>
  <diagram name="Most Recently Used" id="zYJVTUWJYjH3Rc8gc3ST">
    <mxGraphModel dx="3428" dy="2591" grid="1" gridSize="10" guides="1" tooltips="1" connect="1" arrows="1" fold="1" page="1" pageScale="1" pageWidth="850" pageHeight="1100" math="0" shadow="0">
      <root>
        <mxCell id="hwDnQ2wRfq-yaI1x0yQQ-0" />
        <mxCell id="hwDnQ2wRfq-yaI1x0yQQ-1" parent="hwDnQ2wRfq-yaI1x0yQQ-0" />
        <mxCell id="hwDnQ2wRfq-yaI1x0yQQ-2" value="&lt;font style=&quot;font-size: 48px;&quot;&gt;&lt;b style=&quot;&quot;&gt;15 mins&lt;/b&gt;&lt;/font&gt;" style="text;html=1;strokeColor=none;fillColor=none;align=center;verticalAlign=middle;whiteSpace=wrap;rounded=0;" vertex="1" parent="hwDnQ2wRfq-yaI1x0yQQ-1">
          <mxGeometry x="-270" y="-190" width="390" height="49" as="geometry" />
        </mxCell>
        <mxCell id="hwDnQ2wRfq-yaI1x0yQQ-3" value="&lt;font style=&quot;font-size: 48px;&quot;&gt;&lt;b style=&quot;&quot;&gt;&lt;font color=&quot;#ff0000&quot;&gt;First to be deleted&lt;/font&gt;&lt;br&gt;&lt;/b&gt;&lt;/font&gt;" style="text;html=1;strokeColor=none;fillColor=none;align=center;verticalAlign=middle;whiteSpace=wrap;rounded=0;" vertex="1" parent="hwDnQ2wRfq-yaI1x0yQQ-1">
          <mxGeometry x="1210" y="370" width="540" height="49" as="geometry" />
        </mxCell>
        <mxCell id="hwDnQ2wRfq-yaI1x0yQQ-4" value="&lt;font face=&quot;Verdana&quot; style=&quot;font-size: 60px;&quot;&gt;&lt;b&gt;Most Recently Used (MRU)&lt;/b&gt;&lt;/font&gt;" style="rounded=0;whiteSpace=wrap;html=1;fillColor=#d5e8d4;strokeColor=#82b366;" vertex="1" parent="hwDnQ2wRfq-yaI1x0yQQ-1">
          <mxGeometry x="80" y="610" width="1030" height="130" as="geometry" />
        </mxCell>
        <mxCell id="hwDnQ2wRfq-yaI1x0yQQ-5" value="" style="rounded=1;whiteSpace=wrap;html=1;strokeWidth=4;" vertex="1" parent="hwDnQ2wRfq-yaI1x0yQQ-1">
          <mxGeometry x="-290" width="1670" height="320" as="geometry" />
        </mxCell>
        <mxCell id="hwDnQ2wRfq-yaI1x0yQQ-6" style="edgeStyle=orthogonalEdgeStyle;rounded=0;orthogonalLoop=1;jettySize=auto;html=1;strokeWidth=4;" edge="1" parent="hwDnQ2wRfq-yaI1x0yQQ-1" source="hwDnQ2wRfq-yaI1x0yQQ-7">
          <mxGeometry relative="1" as="geometry">
            <mxPoint x="-80" y="-130" as="targetPoint" />
          </mxGeometry>
        </mxCell>
        <mxCell id="hwDnQ2wRfq-yaI1x0yQQ-7" value="" style="ellipse;whiteSpace=wrap;html=1;aspect=fixed;fillColor=#d5e8d4;strokeColor=#82b366;" vertex="1" parent="hwDnQ2wRfq-yaI1x0yQQ-1">
          <mxGeometry x="-200" y="40" width="240" height="240" as="geometry" />
        </mxCell>
        <mxCell id="hwDnQ2wRfq-yaI1x0yQQ-8" value="" style="ellipse;whiteSpace=wrap;html=1;aspect=fixed;fillColor=#d5e8d4;strokeColor=#82b366;" vertex="1" parent="hwDnQ2wRfq-yaI1x0yQQ-1">
          <mxGeometry x="110" y="40" width="240" height="240" as="geometry" />
        </mxCell>
        <mxCell id="hwDnQ2wRfq-yaI1x0yQQ-9" value="" style="ellipse;whiteSpace=wrap;html=1;aspect=fixed;fillColor=#d5e8d4;strokeColor=#82b366;" vertex="1" parent="hwDnQ2wRfq-yaI1x0yQQ-1">
          <mxGeometry x="420" y="40" width="240" height="240" as="geometry" />
        </mxCell>
        <mxCell id="hwDnQ2wRfq-yaI1x0yQQ-10" value="" style="ellipse;whiteSpace=wrap;html=1;aspect=fixed;fillColor=#f8cecc;strokeColor=#b85450;" vertex="1" parent="hwDnQ2wRfq-yaI1x0yQQ-1">
          <mxGeometry x="730" y="40" width="240" height="240" as="geometry" />
        </mxCell>
        <mxCell id="hwDnQ2wRfq-yaI1x0yQQ-11" value="" style="ellipse;whiteSpace=wrap;html=1;aspect=fixed;fillColor=#d5e8d4;strokeColor=#82b366;" vertex="1" parent="hwDnQ2wRfq-yaI1x0yQQ-1">
          <mxGeometry x="1040" y="50" width="240" height="240" as="geometry" />
        </mxCell>
        <mxCell id="hwDnQ2wRfq-yaI1x0yQQ-12" style="edgeStyle=orthogonalEdgeStyle;rounded=0;orthogonalLoop=1;jettySize=auto;html=1;strokeWidth=4;" edge="1" parent="hwDnQ2wRfq-yaI1x0yQQ-1">
          <mxGeometry relative="1" as="geometry">
            <mxPoint x="1320" as="targetPoint" />
            <mxPoint x="1410" y="-160" as="sourcePoint" />
            <Array as="points">
              <mxPoint x="1320" y="-100" />
              <mxPoint x="1320" y="-100" />
            </Array>
          </mxGeometry>
        </mxCell>
        <mxCell id="hwDnQ2wRfq-yaI1x0yQQ-13" style="edgeStyle=orthogonalEdgeStyle;rounded=0;orthogonalLoop=1;jettySize=auto;html=1;strokeWidth=4;" edge="1" parent="hwDnQ2wRfq-yaI1x0yQQ-1">
          <mxGeometry relative="1" as="geometry">
            <mxPoint x="229.29" y="450" as="targetPoint" />
            <mxPoint x="229.29" y="280" as="sourcePoint" />
            <Array as="points">
              <mxPoint x="229.29" y="350" />
              <mxPoint x="229.29" y="350" />
            </Array>
          </mxGeometry>
        </mxCell>
        <mxCell id="hwDnQ2wRfq-yaI1x0yQQ-14" style="edgeStyle=orthogonalEdgeStyle;rounded=0;orthogonalLoop=1;jettySize=auto;html=1;strokeWidth=4;" edge="1" parent="hwDnQ2wRfq-yaI1x0yQQ-1">
          <mxGeometry relative="1" as="geometry">
            <mxPoint x="849.3299999999999" y="450" as="targetPoint" />
            <mxPoint x="849.3299999999999" y="280" as="sourcePoint" />
            <Array as="points">
              <mxPoint x="849.3299999999999" y="350" />
              <mxPoint x="849.3299999999999" y="350" />
            </Array>
          </mxGeometry>
        </mxCell>
        <mxCell id="hwDnQ2wRfq-yaI1x0yQQ-15" style="edgeStyle=orthogonalEdgeStyle;rounded=0;orthogonalLoop=1;jettySize=auto;html=1;strokeWidth=4;" edge="1" parent="hwDnQ2wRfq-yaI1x0yQQ-1">
          <mxGeometry relative="1" as="geometry">
            <mxPoint x="539.29" y="-130" as="targetPoint" />
            <mxPoint x="539.29" y="40" as="sourcePoint" />
          </mxGeometry>
        </mxCell>
        <mxCell id="hwDnQ2wRfq-yaI1x0yQQ-16" style="edgeStyle=orthogonalEdgeStyle;rounded=0;orthogonalLoop=1;jettySize=auto;html=1;strokeWidth=4;" edge="1" parent="hwDnQ2wRfq-yaI1x0yQQ-1">
          <mxGeometry relative="1" as="geometry">
            <mxPoint x="1159.41" y="-120" as="targetPoint" />
            <mxPoint x="1159.41" y="50" as="sourcePoint" />
          </mxGeometry>
        </mxCell>
        <mxCell id="hwDnQ2wRfq-yaI1x0yQQ-17" value="&lt;font style=&quot;font-size: 48px;&quot;&gt;&lt;b style=&quot;&quot;&gt;16 mins&lt;/b&gt;&lt;/font&gt;" style="text;html=1;strokeColor=none;fillColor=none;align=center;verticalAlign=middle;whiteSpace=wrap;rounded=0;" vertex="1" parent="hwDnQ2wRfq-yaI1x0yQQ-1">
          <mxGeometry x="345" y="-190" width="390" height="49" as="geometry" />
        </mxCell>
        <mxCell id="hwDnQ2wRfq-yaI1x0yQQ-18" value="&lt;font style=&quot;font-size: 48px;&quot;&gt;&lt;b style=&quot;&quot;&gt;14 mins&lt;/b&gt;&lt;/font&gt;" style="text;html=1;strokeColor=none;fillColor=none;align=center;verticalAlign=middle;whiteSpace=wrap;rounded=0;" vertex="1" parent="hwDnQ2wRfq-yaI1x0yQQ-1">
          <mxGeometry x="960" y="-180" width="390" height="49" as="geometry" />
        </mxCell>
        <mxCell id="hwDnQ2wRfq-yaI1x0yQQ-19" value="&lt;font style=&quot;font-size: 48px;&quot;&gt;&lt;b style=&quot;&quot;&gt;45 mins&lt;/b&gt;&lt;/font&gt;" style="text;html=1;strokeColor=none;fillColor=none;align=center;verticalAlign=middle;whiteSpace=wrap;rounded=0;" vertex="1" parent="hwDnQ2wRfq-yaI1x0yQQ-1">
          <mxGeometry x="30" y="460" width="390" height="49" as="geometry" />
        </mxCell>
        <mxCell id="hwDnQ2wRfq-yaI1x0yQQ-20" value="&lt;font style=&quot;font-size: 48px;&quot;&gt;&lt;b style=&quot;&quot;&gt;10 mins&lt;/b&gt;&lt;/font&gt;" style="text;html=1;strokeColor=none;fillColor=none;align=center;verticalAlign=middle;whiteSpace=wrap;rounded=0;" vertex="1" parent="hwDnQ2wRfq-yaI1x0yQQ-1">
          <mxGeometry x="670" y="470" width="390" height="49" as="geometry" />
        </mxCell>
        <mxCell id="hwDnQ2wRfq-yaI1x0yQQ-21" value="&lt;font style=&quot;font-size: 48px;&quot;&gt;&lt;b style=&quot;&quot;&gt;Time since last used&lt;/b&gt;&lt;/font&gt;" style="text;html=1;strokeColor=none;fillColor=none;align=center;verticalAlign=middle;whiteSpace=wrap;rounded=0;" vertex="1" parent="hwDnQ2wRfq-yaI1x0yQQ-1">
          <mxGeometry x="1320" y="-200" width="390" height="49" as="geometry" />
        </mxCell>
        <mxCell id="hwDnQ2wRfq-yaI1x0yQQ-22" style="edgeStyle=orthogonalEdgeStyle;rounded=0;orthogonalLoop=1;jettySize=auto;html=1;strokeWidth=4;" edge="1" parent="hwDnQ2wRfq-yaI1x0yQQ-1">
          <mxGeometry relative="1" as="geometry">
            <mxPoint x="950.0499999999998" y="230" as="targetPoint" />
            <mxPoint x="1260" y="400" as="sourcePoint" />
            <Array as="points">
              <mxPoint x="950.0499999999998" y="300" />
              <mxPoint x="950.0499999999998" y="300" />
            </Array>
          </mxGeometry>
        </mxCell>
      </root>
    </mxGraphModel>
  </diagram>
  <diagram name="Time to Live" id="g7igyJIF2wyCKoGTFMJa">
    <mxGraphModel dx="2876" dy="2271" grid="1" gridSize="10" guides="1" tooltips="1" connect="1" arrows="1" fold="1" page="1" pageScale="1" pageWidth="850" pageHeight="1100" math="0" shadow="0">
      <root>
        <mxCell id="K4fByKFn2mAFA9sG-4ks-0" />
        <mxCell id="K4fByKFn2mAFA9sG-4ks-1" parent="K4fByKFn2mAFA9sG-4ks-0" />
        <mxCell id="K4fByKFn2mAFA9sG-4ks-2" value="&lt;font style=&quot;font-size: 48px;&quot;&gt;&lt;b style=&quot;&quot;&gt;15 mins&lt;/b&gt;&lt;/font&gt;" style="text;html=1;strokeColor=none;fillColor=none;align=center;verticalAlign=middle;whiteSpace=wrap;rounded=0;" vertex="1" parent="K4fByKFn2mAFA9sG-4ks-1">
          <mxGeometry x="-270" y="-190" width="390" height="49" as="geometry" />
        </mxCell>
        <mxCell id="K4fByKFn2mAFA9sG-4ks-3" value="&lt;font style=&quot;font-size: 48px;&quot;&gt;&lt;b style=&quot;&quot;&gt;&lt;font color=&quot;#ff0000&quot;&gt;First to be deleted&lt;/font&gt;&lt;br&gt;&lt;/b&gt;&lt;/font&gt;" style="text;html=1;strokeColor=none;fillColor=none;align=center;verticalAlign=middle;whiteSpace=wrap;rounded=0;" vertex="1" parent="K4fByKFn2mAFA9sG-4ks-1">
          <mxGeometry x="1210" y="370" width="540" height="49" as="geometry" />
        </mxCell>
        <mxCell id="K4fByKFn2mAFA9sG-4ks-4" value="&lt;font face=&quot;Verdana&quot; style=&quot;font-size: 60px;&quot;&gt;&lt;b&gt;Time to Live (TTL)&lt;/b&gt;&lt;/font&gt;" style="rounded=0;whiteSpace=wrap;html=1;fillColor=#d5e8d4;strokeColor=#82b366;" vertex="1" parent="K4fByKFn2mAFA9sG-4ks-1">
          <mxGeometry x="80" y="610" width="1030" height="130" as="geometry" />
        </mxCell>
        <mxCell id="K4fByKFn2mAFA9sG-4ks-5" value="" style="rounded=1;whiteSpace=wrap;html=1;strokeWidth=4;" vertex="1" parent="K4fByKFn2mAFA9sG-4ks-1">
          <mxGeometry x="-290" width="1670" height="320" as="geometry" />
        </mxCell>
        <mxCell id="K4fByKFn2mAFA9sG-4ks-6" style="edgeStyle=orthogonalEdgeStyle;rounded=0;orthogonalLoop=1;jettySize=auto;html=1;strokeWidth=4;" edge="1" parent="K4fByKFn2mAFA9sG-4ks-1" source="K4fByKFn2mAFA9sG-4ks-7">
          <mxGeometry relative="1" as="geometry">
            <mxPoint x="-80" y="-130" as="targetPoint" />
          </mxGeometry>
        </mxCell>
        <mxCell id="K4fByKFn2mAFA9sG-4ks-7" value="" style="ellipse;whiteSpace=wrap;html=1;aspect=fixed;fillColor=#d5e8d4;strokeColor=#82b366;" vertex="1" parent="K4fByKFn2mAFA9sG-4ks-1">
          <mxGeometry x="-200" y="40" width="240" height="240" as="geometry" />
        </mxCell>
        <mxCell id="K4fByKFn2mAFA9sG-4ks-8" value="" style="ellipse;whiteSpace=wrap;html=1;aspect=fixed;fillColor=#d5e8d4;strokeColor=#82b366;" vertex="1" parent="K4fByKFn2mAFA9sG-4ks-1">
          <mxGeometry x="110" y="40" width="240" height="240" as="geometry" />
        </mxCell>
        <mxCell id="K4fByKFn2mAFA9sG-4ks-9" value="" style="ellipse;whiteSpace=wrap;html=1;aspect=fixed;fillColor=#d5e8d4;strokeColor=#82b366;" vertex="1" parent="K4fByKFn2mAFA9sG-4ks-1">
          <mxGeometry x="420" y="40" width="240" height="240" as="geometry" />
        </mxCell>
        <mxCell id="K4fByKFn2mAFA9sG-4ks-10" value="" style="ellipse;whiteSpace=wrap;html=1;aspect=fixed;fillColor=#f8cecc;strokeColor=#b85450;" vertex="1" parent="K4fByKFn2mAFA9sG-4ks-1">
          <mxGeometry x="730" y="40" width="240" height="240" as="geometry" />
        </mxCell>
        <mxCell id="K4fByKFn2mAFA9sG-4ks-11" value="" style="ellipse;whiteSpace=wrap;html=1;aspect=fixed;fillColor=#d5e8d4;strokeColor=#82b366;" vertex="1" parent="K4fByKFn2mAFA9sG-4ks-1">
          <mxGeometry x="1040" y="50" width="240" height="240" as="geometry" />
        </mxCell>
        <mxCell id="K4fByKFn2mAFA9sG-4ks-12" style="edgeStyle=orthogonalEdgeStyle;rounded=0;orthogonalLoop=1;jettySize=auto;html=1;strokeWidth=4;" edge="1" parent="K4fByKFn2mAFA9sG-4ks-1">
          <mxGeometry relative="1" as="geometry">
            <mxPoint x="1320" as="targetPoint" />
            <mxPoint x="1410" y="-160" as="sourcePoint" />
            <Array as="points">
              <mxPoint x="1320" y="-100" />
              <mxPoint x="1320" y="-100" />
            </Array>
          </mxGeometry>
        </mxCell>
        <mxCell id="K4fByKFn2mAFA9sG-4ks-13" style="edgeStyle=orthogonalEdgeStyle;rounded=0;orthogonalLoop=1;jettySize=auto;html=1;strokeWidth=4;" edge="1" parent="K4fByKFn2mAFA9sG-4ks-1">
          <mxGeometry relative="1" as="geometry">
            <mxPoint x="229.29" y="450" as="targetPoint" />
            <mxPoint x="229.29" y="280" as="sourcePoint" />
            <Array as="points">
              <mxPoint x="229.29" y="350" />
              <mxPoint x="229.29" y="350" />
            </Array>
          </mxGeometry>
        </mxCell>
        <mxCell id="K4fByKFn2mAFA9sG-4ks-14" style="edgeStyle=orthogonalEdgeStyle;rounded=0;orthogonalLoop=1;jettySize=auto;html=1;strokeWidth=4;" edge="1" parent="K4fByKFn2mAFA9sG-4ks-1">
          <mxGeometry relative="1" as="geometry">
            <mxPoint x="849.3299999999999" y="450" as="targetPoint" />
            <mxPoint x="849.3299999999999" y="280" as="sourcePoint" />
            <Array as="points">
              <mxPoint x="849.3299999999999" y="350" />
              <mxPoint x="849.3299999999999" y="350" />
            </Array>
          </mxGeometry>
        </mxCell>
        <mxCell id="K4fByKFn2mAFA9sG-4ks-15" style="edgeStyle=orthogonalEdgeStyle;rounded=0;orthogonalLoop=1;jettySize=auto;html=1;strokeWidth=4;" edge="1" parent="K4fByKFn2mAFA9sG-4ks-1">
          <mxGeometry relative="1" as="geometry">
            <mxPoint x="539.29" y="-130" as="targetPoint" />
            <mxPoint x="539.29" y="40" as="sourcePoint" />
          </mxGeometry>
        </mxCell>
        <mxCell id="K4fByKFn2mAFA9sG-4ks-16" style="edgeStyle=orthogonalEdgeStyle;rounded=0;orthogonalLoop=1;jettySize=auto;html=1;strokeWidth=4;" edge="1" parent="K4fByKFn2mAFA9sG-4ks-1">
          <mxGeometry relative="1" as="geometry">
            <mxPoint x="1159.41" y="-120" as="targetPoint" />
            <mxPoint x="1159.41" y="50" as="sourcePoint" />
          </mxGeometry>
        </mxCell>
        <mxCell id="K4fByKFn2mAFA9sG-4ks-17" value="&lt;font style=&quot;font-size: 48px;&quot;&gt;&lt;b style=&quot;&quot;&gt;16 mins&lt;/b&gt;&lt;/font&gt;" style="text;html=1;strokeColor=none;fillColor=none;align=center;verticalAlign=middle;whiteSpace=wrap;rounded=0;" vertex="1" parent="K4fByKFn2mAFA9sG-4ks-1">
          <mxGeometry x="345" y="-190" width="390" height="49" as="geometry" />
        </mxCell>
        <mxCell id="K4fByKFn2mAFA9sG-4ks-18" value="&lt;font style=&quot;font-size: 48px;&quot;&gt;&lt;b style=&quot;&quot;&gt;14 mins&lt;/b&gt;&lt;/font&gt;" style="text;html=1;strokeColor=none;fillColor=none;align=center;verticalAlign=middle;whiteSpace=wrap;rounded=0;" vertex="1" parent="K4fByKFn2mAFA9sG-4ks-1">
          <mxGeometry x="960" y="-180" width="390" height="49" as="geometry" />
        </mxCell>
        <mxCell id="K4fByKFn2mAFA9sG-4ks-19" value="&lt;font style=&quot;font-size: 48px;&quot;&gt;&lt;b style=&quot;&quot;&gt;45 mins&lt;/b&gt;&lt;/font&gt;" style="text;html=1;strokeColor=none;fillColor=none;align=center;verticalAlign=middle;whiteSpace=wrap;rounded=0;" vertex="1" parent="K4fByKFn2mAFA9sG-4ks-1">
          <mxGeometry x="30" y="460" width="390" height="49" as="geometry" />
        </mxCell>
        <mxCell id="K4fByKFn2mAFA9sG-4ks-20" value="&lt;font style=&quot;font-size: 48px;&quot;&gt;&lt;b style=&quot;&quot;&gt;10 mins&lt;/b&gt;&lt;/font&gt;" style="text;html=1;strokeColor=none;fillColor=none;align=center;verticalAlign=middle;whiteSpace=wrap;rounded=0;" vertex="1" parent="K4fByKFn2mAFA9sG-4ks-1">
          <mxGeometry x="670" y="470" width="390" height="49" as="geometry" />
        </mxCell>
        <mxCell id="K4fByKFn2mAFA9sG-4ks-21" value="&lt;font style=&quot;font-size: 48px;&quot;&gt;&lt;b style=&quot;&quot;&gt;Time until expiry&lt;/b&gt;&lt;/font&gt;" style="text;html=1;strokeColor=none;fillColor=none;align=center;verticalAlign=middle;whiteSpace=wrap;rounded=0;" vertex="1" parent="K4fByKFn2mAFA9sG-4ks-1">
          <mxGeometry x="1320" y="-190" width="350" height="49" as="geometry" />
        </mxCell>
        <mxCell id="K4fByKFn2mAFA9sG-4ks-22" style="edgeStyle=orthogonalEdgeStyle;rounded=0;orthogonalLoop=1;jettySize=auto;html=1;strokeWidth=4;" edge="1" parent="K4fByKFn2mAFA9sG-4ks-1">
          <mxGeometry relative="1" as="geometry">
            <mxPoint x="950.0499999999998" y="230" as="targetPoint" />
            <mxPoint x="1260" y="400" as="sourcePoint" />
            <Array as="points">
              <mxPoint x="950.0499999999998" y="300" />
              <mxPoint x="950.0499999999998" y="300" />
            </Array>
          </mxGeometry>
        </mxCell>
      </root>
    </mxGraphModel>
  </diagram>
  <diagram name="Two-Tiered Caching" id="LKdVvmsDsK3152Rv51zm">
    <mxGraphModel dx="4395" dy="3150" grid="1" gridSize="10" guides="1" tooltips="1" connect="1" arrows="1" fold="1" page="1" pageScale="1" pageWidth="850" pageHeight="1100" math="0" shadow="0">
      <root>
        <mxCell id="uUkxQTMUVHPFnj3VUnq4-0" />
        <mxCell id="uUkxQTMUVHPFnj3VUnq4-1" parent="uUkxQTMUVHPFnj3VUnq4-0" />
        <mxCell id="uUkxQTMUVHPFnj3VUnq4-3" value="&lt;font face=&quot;Verdana&quot; style=&quot;font-size: 60px;&quot;&gt;&lt;b&gt;Random Replacement (RR)&lt;/b&gt;&lt;/font&gt;" style="rounded=0;whiteSpace=wrap;html=1;fillColor=#d5e8d4;strokeColor=#82b366;" vertex="1" parent="uUkxQTMUVHPFnj3VUnq4-1">
          <mxGeometry x="40" y="1300" width="1030" height="130" as="geometry" />
        </mxCell>
        <mxCell id="uUkxQTMUVHPFnj3VUnq4-4" value="" style="rounded=1;whiteSpace=wrap;html=1;strokeWidth=4;" vertex="1" parent="uUkxQTMUVHPFnj3VUnq4-1">
          <mxGeometry x="-290" y="-100" width="1670" height="500" as="geometry" />
        </mxCell>
        <mxCell id="uUkxQTMUVHPFnj3VUnq4-5" value="" style="ellipse;whiteSpace=wrap;html=1;aspect=fixed;fillColor=#d5e8d4;strokeColor=#82b366;" vertex="1" parent="uUkxQTMUVHPFnj3VUnq4-1">
          <mxGeometry x="-200" y="40" width="240" height="240" as="geometry" />
        </mxCell>
        <mxCell id="uUkxQTMUVHPFnj3VUnq4-6" value="" style="ellipse;whiteSpace=wrap;html=1;aspect=fixed;fillColor=#d5e8d4;strokeColor=#82b366;" vertex="1" parent="uUkxQTMUVHPFnj3VUnq4-1">
          <mxGeometry x="110" y="40" width="240" height="240" as="geometry" />
        </mxCell>
        <mxCell id="uUkxQTMUVHPFnj3VUnq4-7" value="" style="ellipse;whiteSpace=wrap;html=1;aspect=fixed;fillColor=#d5e8d4;strokeColor=#82b366;" vertex="1" parent="uUkxQTMUVHPFnj3VUnq4-1">
          <mxGeometry x="420" y="40" width="240" height="240" as="geometry" />
        </mxCell>
        <mxCell id="uUkxQTMUVHPFnj3VUnq4-8" value="" style="ellipse;whiteSpace=wrap;html=1;aspect=fixed;fillColor=#d5e8d4;strokeColor=#82b366;" vertex="1" parent="uUkxQTMUVHPFnj3VUnq4-1">
          <mxGeometry x="730" y="40" width="240" height="240" as="geometry" />
        </mxCell>
        <mxCell id="uUkxQTMUVHPFnj3VUnq4-9" value="" style="ellipse;whiteSpace=wrap;html=1;aspect=fixed;fillColor=#d5e8d4;strokeColor=#82b366;" vertex="1" parent="uUkxQTMUVHPFnj3VUnq4-1">
          <mxGeometry x="1040" y="50" width="240" height="240" as="geometry" />
        </mxCell>
        <mxCell id="cCdiLm4jDl0M3v6UwQyH-0" value="" style="rounded=1;whiteSpace=wrap;html=1;strokeWidth=4;" vertex="1" parent="uUkxQTMUVHPFnj3VUnq4-1">
          <mxGeometry x="-295" y="620" width="1670" height="440" as="geometry" />
        </mxCell>
        <mxCell id="cCdiLm4jDl0M3v6UwQyH-2" value="" style="ellipse;whiteSpace=wrap;html=1;aspect=fixed;fillColor=#dae8fc;strokeColor=#6c8ebf;" vertex="1" parent="uUkxQTMUVHPFnj3VUnq4-1">
          <mxGeometry x="-45" y="730" width="240" height="240" as="geometry" />
        </mxCell>
        <mxCell id="cCdiLm4jDl0M3v6UwQyH-3" value="" style="ellipse;whiteSpace=wrap;html=1;aspect=fixed;fillColor=#dae8fc;strokeColor=#6c8ebf;" vertex="1" parent="uUkxQTMUVHPFnj3VUnq4-1">
          <mxGeometry x="415" y="730" width="240" height="240" as="geometry" />
        </mxCell>
        <mxCell id="cCdiLm4jDl0M3v6UwQyH-4" value="" style="ellipse;whiteSpace=wrap;html=1;aspect=fixed;fillColor=#dae8fc;strokeColor=#6c8ebf;" vertex="1" parent="uUkxQTMUVHPFnj3VUnq4-1">
          <mxGeometry x="875" y="730" width="240" height="240" as="geometry" />
        </mxCell>
        <mxCell id="uUkxQTMUVHPFnj3VUnq4-2" value="&lt;font style=&quot;font-size: 48px;&quot;&gt;&lt;b style=&quot;&quot;&gt;Frequently Used data&lt;br&gt;&lt;/b&gt;&lt;/font&gt;" style="text;html=1;strokeColor=none;fillColor=none;align=center;verticalAlign=middle;whiteSpace=wrap;rounded=0;" vertex="1" parent="uUkxQTMUVHPFnj3VUnq4-1">
          <mxGeometry x="130" y="-70" width="810" height="49" as="geometry" />
        </mxCell>
        <mxCell id="cCdiLm4jDl0M3v6UwQyH-6" value="&lt;font style=&quot;font-size: 48px;&quot;&gt;&lt;b style=&quot;&quot;&gt;Less Frequently Used data&lt;br&gt;&lt;/b&gt;&lt;/font&gt;" style="text;html=1;strokeColor=none;fillColor=none;align=center;verticalAlign=middle;whiteSpace=wrap;rounded=0;" vertex="1" parent="uUkxQTMUVHPFnj3VUnq4-1">
          <mxGeometry x="120" y="650" width="810" height="49" as="geometry" />
        </mxCell>
      </root>
    </mxGraphModel>
  </diagram>
</mxfile>
